<?xml version="1.0" standalone="no"?>
<!DOCTYPE svg PUBLIC "-//W3C//DTD SVG 20010904//EN"
 "http://www.w3.org/TR/2001/REC-SVG-20010904/DTD/svg10.dtd">
<svg version="1.0" xmlns="http://www.w3.org/2000/svg"
 width="128.000000pt" height="128.000000pt" viewBox="0 0 128.000000 128.000000"
 preserveAspectRatio="xMidYMid meet">

<g transform="translate(0.000000,128.000000) scale(0.100000,-0.100000)"
fill="#0c65cc" stroke="none">
<path d="M34 1246 l-34 -34 0 -572 0 -572 34 -34 34 -34 572 0 572 0 34 34 34
34 0 572 0 572 -34 34 -34 34 -572 0 -572 0 -34 -34z m691 -281 c98 -26 171
-99 182 -184 l6 -41 -75 0 -75 0 -12 40 c-15 50 -44 70 -101 70 -93 0 -120
-47 -120 -210 0 -166 24 -209 115 -210 61 0 92 19 103 63 l8 32 77 3 c75 3 77
2 77 -21 0 -13 -11 -46 -25 -74 -82 -163 -359 -175 -462 -20 -44 65 -53 104
-53 223 0 187 53 280 184 326 63 22 96 22 171 3z" />
</g>
</svg>
