<svg width="104" height="45" viewBox="0 0 104 45" fill="none" xmlns="http://www.w3.org/2000/svg">
<path d="M8.99895 30.268L17.0747 39.6546L15.4494 42.3122L6.03013 30.4618L7.06446 28.7706L8.99895 30.268ZM20.7688 33.6146L8.65247 30.8345L6.40717 29.8453L7.45169 28.1375L22.3992 30.9487L20.7688 33.6146ZM16.1446 31.031L18.1098 32.2162L14.1916 38.6228L12.2264 37.4376L16.1446 31.031Z" fill="white"/>
<path d="M24.6638 18.4531L29.2056 25.4128L26.8405 26.9348L21.0659 18.0859L23.2831 16.6591L24.6638 18.4531ZM25.7706 20.8995L25.13 21.3118C24.7031 20.6575 24.4037 20.0141 24.2318 19.3814C24.0564 18.7433 24.001 18.1403 24.0657 17.5722C24.1267 16.9987 24.304 16.4782 24.5975 16.0107C24.8929 15.5341 25.3033 15.1267 25.8289 14.7885C26.245 14.5207 26.6646 14.3359 27.0878 14.2339C27.511 14.1318 27.9312 14.1324 28.3483 14.2356C28.7709 14.3352 29.1885 14.5581 29.601 14.9043C30.0189 15.2469 30.4307 15.729 30.8363 16.3506L34.5189 21.9935L32.1373 23.5261L28.4495 17.875C28.1933 17.4824 27.9393 17.2123 27.6875 17.0647C27.4357 16.9171 27.1745 16.8683 26.9041 16.9185C26.6356 16.9597 26.348 17.079 26.0414 17.2762C25.7239 17.4806 25.4883 17.7212 25.3347 17.9981C25.1866 18.2715 25.1089 18.5693 25.1015 18.8915C25.096 19.2047 25.151 19.5331 25.2665 19.8769C25.3819 20.2206 25.55 20.5615 25.7706 20.8995Z" fill="white"/>
<path d="M46.4712 15.5625C46.4384 15.3634 46.3508 15.193 46.2087 15.0512C46.0665 14.9094 45.8268 14.7968 45.4897 14.7131C45.1579 14.622 44.6901 14.5663 44.0863 14.5458C43.5403 14.516 43.0248 14.4515 42.54 14.3523C42.0605 14.2457 41.633 14.0943 41.2575 13.8982C40.8884 13.7011 40.5826 13.4474 40.34 13.1373C40.0964 12.8208 39.938 12.4409 39.8649 11.9977C39.7927 11.5609 39.818 11.1346 39.9408 10.7189C40.0699 10.3021 40.2868 9.9172 40.5914 9.56418C40.9014 9.20369 41.2997 8.8981 41.7862 8.64739C42.278 8.38922 42.8485 8.20731 43.4975 8.10165C44.4035 7.95414 45.2049 7.97208 45.9016 8.15548C46.6048 8.33783 47.1718 8.65448 47.6025 9.10544C48.0387 9.54893 48.3098 10.0919 48.4158 10.7342L45.6399 11.1861C45.5953 10.9164 45.4977 10.6849 45.347 10.4917C45.2018 10.2911 45.0002 10.1492 44.7422 10.0658C44.4897 9.97501 44.1771 9.95994 43.8044 10.0206C43.496 10.0708 43.2383 10.1688 43.0314 10.3147C42.8235 10.4541 42.6733 10.6236 42.5809 10.8233C42.4939 11.0156 42.4679 11.2177 42.5029 11.4297C42.5294 11.5903 42.5854 11.7296 42.6708 11.8476C42.7617 11.9581 42.8927 12.0522 43.0639 12.1299C43.2351 12.2076 43.4502 12.2715 43.7092 12.3217C43.9736 12.3644 44.2948 12.3912 44.6727 12.4023C45.45 12.434 46.1549 12.5271 46.7874 12.6813C47.4189 12.8292 47.9431 13.0868 48.3601 13.4543C48.776 13.8153 49.0402 14.3363 49.1526 15.0172C49.2289 15.4796 49.1961 15.9203 49.0541 16.3392C48.9121 16.7581 48.6722 17.1435 48.3344 17.4953C47.9955 17.8407 47.5694 18.1376 47.0562 18.3861C46.5483 18.6271 45.9602 18.802 45.2919 18.9108C44.3216 19.0687 43.4705 19.0292 42.7385 18.7922C42.0129 18.5541 41.4327 18.1968 40.9977 17.7201C40.568 17.236 40.3065 16.7113 40.2132 16.146L42.8446 15.7176C42.92 16.0945 43.0667 16.3839 43.2848 16.5859C43.5094 16.7868 43.7715 16.9156 44.0712 16.9724C44.3773 17.0281 44.6975 17.0287 45.0316 16.9743C45.3914 16.9157 45.6823 16.8189 45.9041 16.6838C46.1249 16.5424 46.2826 16.3782 46.3771 16.1913C46.477 15.9969 46.5084 15.7873 46.4712 15.5625Z" fill="white"/>
<path d="M60.2399 16.1154L64.5833 9.22813L66.298 9.73162L64.8673 12.5175L60.6215 19.0772L59.1879 18.6563L60.2399 16.1154ZM61.4069 8.29542L60.6831 16.2354L60.0405 18.9066L58.3539 18.4114L58.802 7.53054L61.4069 8.29542ZM66.0322 17.6737L69.6994 10.7304L72.3136 11.498L66.7307 20.8711L65.0535 20.3786L66.0322 17.6737ZM66.5323 9.80041L66.4128 17.8669L65.9062 20.629L64.4632 20.2053L64.4897 12.4168L64.8363 9.30241L66.5323 9.80041Z" fill="white"/>
<path d="M77.8765 28.4322C77.2674 27.8827 76.8091 27.2939 76.5015 26.6656C76.1983 26.0326 76.0357 25.3905 76.0137 24.7394C75.9966 24.0926 76.1074 23.4604 76.346 22.8427C76.589 22.2202 76.9479 21.6496 77.4225 21.1308L77.6862 20.8426C78.2267 20.2518 78.8057 19.7877 79.4231 19.4504C80.0405 19.1131 80.6712 18.906 81.315 18.8292C81.9636 18.7568 82.603 18.8295 83.2332 19.0473C83.8677 19.2603 84.4702 19.6241 85.0406 20.1387C85.5965 20.6402 86.0061 21.1763 86.2693 21.747C86.5325 22.3177 86.6553 22.9019 86.6377 23.4999C86.625 24.1021 86.4782 24.7062 86.1974 25.3122C85.9209 25.9133 85.5212 26.4996 84.9983 27.0713L84.2073 27.9359L77.9715 22.3101L79.2372 20.9267L83.4209 24.7012L83.5659 24.5427C83.8296 24.2545 84.0116 23.9495 84.1118 23.6278C84.2212 23.3057 84.2335 22.9836 84.1487 22.6616C84.0639 22.3395 83.8595 22.0324 83.5357 21.7402C83.2601 21.4917 82.9683 21.338 82.6603 21.2793C82.3522 21.2206 82.0365 21.2426 81.7131 21.3454C81.3944 21.4525 81.0697 21.6242 80.7388 21.8605C80.4171 22.0964 80.0981 22.3873 79.7816 22.7331L79.518 23.0213C79.2323 23.3335 79.0121 23.661 78.8575 24.0037C78.7076 24.3507 78.6269 24.6945 78.6155 25.0349C78.6089 25.3797 78.6757 25.7117 78.8159 26.0311C78.9609 26.3548 79.1857 26.6541 79.4902 26.9288C79.8673 27.269 80.2836 27.5131 80.7393 27.6612C81.2043 27.8088 81.6914 27.8406 82.2007 27.7565L82.2139 29.7675C81.8342 29.8546 81.4029 29.8776 80.9199 29.8364C80.4418 29.7996 79.9408 29.6721 79.417 29.4538C78.8976 29.2307 78.3841 28.8901 77.8765 28.4322Z" fill="white"/>
<path d="M93.4404 35.077L86.067 38.8037L84.7842 36.3008L94.2145 31.5345L95.4216 33.8897L93.4404 35.077ZM97.0104 36.8397L94.6611 37.9724C94.6162 37.8419 94.555 37.6869 94.4775 37.5072C94.4088 37.3303 94.3388 37.1724 94.2676 37.0334C94.0864 36.6799 93.8826 36.3964 93.656 36.1826C93.4381 35.9718 93.1975 35.8235 92.9341 35.7378C92.6737 35.6578 92.3963 35.6376 92.1019 35.6769C91.8105 35.7221 91.502 35.8197 91.1765 35.9696L91.075 35.3862C91.6851 35.0779 92.277 34.8553 92.8507 34.7186C93.4302 34.5789 93.9711 34.528 94.4733 34.5659C94.9786 34.6096 95.4234 34.7495 95.8078 34.9856C96.1921 35.2217 96.4972 35.56 96.7228 36.0003C96.7941 36.1393 96.8552 36.2872 96.9062 36.4438C96.9631 36.5974 96.9978 36.7294 97.0104 36.8397Z" fill="white"/>
</svg>
