<svg width="120" height="54" viewBox="0 0 120 54" fill="none" xmlns="http://www.w3.org/2000/svg">
<path d="M15.2883 37.1732L20.462 39.4057C20.6193 39.7147 20.7499 40.1433 20.8537 40.6915C20.9515 41.2372 20.9576 41.8886 20.8719 42.6458C20.7863 43.403 20.5384 44.2568 20.1282 45.2072C19.7645 46.0501 19.2956 46.7589 18.7214 47.3336C18.1412 47.9058 17.4738 48.3269 16.7191 48.5968C15.9671 48.8608 15.1444 48.9596 14.2513 48.8933C13.3521 48.8244 12.4004 48.5732 11.3962 48.1399L10.5803 47.7878C9.57602 47.3544 8.73782 46.8403 8.06567 46.2453C7.3961 45.6444 6.89679 44.9858 6.56775 44.2694C6.2387 43.5531 6.07815 42.7996 6.0861 42.0088C6.09406 41.2181 6.27473 40.4133 6.62811 39.5944C7.11821 38.4586 7.70592 37.6061 8.39122 37.0367C9.07055 36.4648 9.81854 36.1281 10.6352 36.0267C11.4484 35.9168 12.2928 35.9975 13.1684 36.269L12.0425 38.8782C11.5717 38.7531 11.132 38.7122 10.7233 38.7557C10.3146 38.7991 9.94273 38.9542 9.60781 39.2209C9.27548 39.4817 8.99194 39.8841 8.75721 40.428C8.56375 40.8763 8.48358 41.3168 8.5167 41.7495C8.54641 42.1736 8.68602 42.5812 8.93552 42.9725C9.18502 43.3638 9.54272 43.7344 10.0086 44.0844C10.4745 44.4343 11.0511 44.7576 11.7386 45.0543L12.5724 45.4141C13.2539 45.7082 13.886 45.9029 14.4688 45.9984C15.0456 46.0913 15.5688 46.0866 16.0383 45.9844C16.5045 45.8735 16.9098 45.6655 17.2542 45.3604C17.5986 45.0552 17.8805 44.6485 18.0997 44.1404C18.2829 43.716 18.3992 43.3479 18.4487 43.036C18.5008 42.7181 18.5134 42.4506 18.4866 42.2334C18.4564 42.0076 18.4141 41.8263 18.3597 41.6893L16.0464 40.6911L14.9862 43.1479L13.0674 42.3199L15.2883 37.1732Z" fill="white"/>
<path d="M29.7831 31.26C29.1995 31.8365 28.5846 32.2608 27.9384 32.5331C27.2877 32.8007 26.6355 32.9279 25.9818 32.9147C25.3328 32.8969 24.7053 32.7527 24.0993 32.4819C23.4887 32.2066 22.9363 31.8188 22.4422 31.3186L22.1677 31.0407C21.6049 30.471 21.1713 29.8698 20.8667 29.2373C20.5621 28.6047 20.3888 27.966 20.3467 27.3213C20.3093 26.6719 20.4167 26.0396 20.6691 25.4242C20.9169 24.8043 21.3141 24.2243 21.8606 23.6844C22.3932 23.1583 22.9526 22.7796 23.5387 22.5484C24.1248 22.3172 24.7169 22.2265 25.3151 22.2762C25.9179 22.3213 26.5152 22.4999 27.1072 22.812C27.6946 23.1194 28.2605 23.5487 28.8049 24.0999L29.6285 24.9336L23.6536 30.8357L22.3359 29.5018L26.3447 25.5419L26.1937 25.389C25.9192 25.1111 25.6234 24.9137 25.3065 24.7966C24.9896 24.6704 24.6676 24.6408 24.3403 24.7078C24.013 24.7749 23.6942 24.9617 23.3839 25.2682C23.1199 25.529 22.9501 25.8111 22.8746 26.1145C22.7991 26.4179 22.8041 26.7332 22.8895 27.0606C22.9796 27.3834 23.1341 27.7158 23.353 28.0579C23.5719 28.3907 23.8461 28.7238 24.1755 29.0573L24.45 29.3352C24.7474 29.6362 25.0636 29.873 25.3986 30.0454C25.7383 30.2132 26.0783 30.3119 26.4188 30.3416C26.7639 30.3668 27.1003 30.3182 27.4279 30.1959C27.7602 30.069 28.0722 29.8615 28.364 29.5732C28.7252 29.2164 28.9924 28.8152 29.1655 28.3697C29.3386 27.915 29.3968 27.432 29.3401 26.9206L31.3559 27.0158C31.4226 27.3984 31.4223 27.8288 31.3549 28.3072C31.2921 28.781 31.1372 29.2726 30.8901 29.7821C30.6384 30.2869 30.2694 30.7796 29.7831 31.26Z" fill="white"/>
<path d="M36.9814 15.8604L40.3479 23.4586L37.7765 24.5979L33.4962 14.9372L35.9069 13.8691L36.9814 15.8604ZM37.6824 18.4551L36.986 18.7637C36.6695 18.0494 36.477 17.3657 36.4083 16.7125C36.337 16.0533 36.3784 15.4476 36.5324 14.8951C36.6837 14.3367 36.9411 13.8488 37.3045 13.4315C37.6712 13.0055 38.1402 12.666 38.7117 12.4128C39.164 12.2124 39.6067 12.0945 40.0398 12.0594C40.4728 12.0242 40.8865 12.0901 41.2809 12.2571C41.6813 12.4215 42.0571 12.7072 42.4083 13.1141C42.7655 13.5184 43.0944 14.0598 43.3951 14.7384L46.1246 20.8991L43.5354 22.0463L40.8018 15.8767C40.6119 15.4481 40.4047 15.1412 40.1802 14.9558C39.9557 14.7705 39.7062 14.6816 39.4319 14.6892C39.1609 14.6883 38.8587 14.7616 38.5254 14.9093C38.1801 15.0623 37.9099 15.2639 37.7146 15.5142C37.5252 15.7619 37.4013 16.0447 37.3427 16.3625C37.2875 16.6718 37.2895 17.0057 37.3485 17.364C37.4076 17.7224 37.5189 18.0861 37.6824 18.4551Z" fill="white"/>
<path d="M58.0725 19.0801C57.2534 19.1251 56.5117 19.0355 55.8474 18.8111C55.1827 18.5803 54.61 18.2434 54.1292 17.8004C53.6549 17.3569 53.2806 16.8331 53.0061 16.2287C52.7313 15.6179 52.5747 14.9614 52.5361 14.2594L52.5147 13.8693C52.4707 13.0697 52.5443 12.3322 52.7354 11.6566C52.9265 10.9811 53.22 10.3879 53.6157 9.87714C54.018 9.36602 54.5175 8.96367 55.1143 8.67008C55.7107 8.36998 56.3924 8.19887 57.1595 8.15673C57.9071 8.11567 58.5769 8.20275 59.169 8.41799C59.7612 8.63324 60.2647 8.95767 60.6798 9.39128C61.1013 9.82454 61.4303 10.3542 61.6668 10.9802C61.903 11.5996 62.0423 12.2962 62.0848 13.0698L62.1491 14.2399L53.7633 14.7005L53.6605 12.8283L59.2867 12.5193L59.275 12.3048C59.2535 11.9147 59.1629 11.5709 59.0031 11.2732C58.8495 10.9687 58.6279 10.7331 58.3384 10.5664C58.0488 10.3997 57.6863 10.3284 57.2508 10.3523C56.8802 10.3727 56.5662 10.4714 56.3086 10.6486C56.051 10.8257 55.8457 11.0652 55.6927 11.367C55.5463 11.6685 55.4417 12.0198 55.379 12.421C55.3224 12.8153 55.307 13.2465 55.3327 13.7145L55.3541 14.1046C55.3773 14.5271 55.4573 14.9139 55.5939 15.265C55.7371 15.6158 55.9263 15.9151 56.1616 16.163C56.4034 16.4105 56.6875 16.597 57.0139 16.7225C57.3468 16.8477 57.718 16.899 58.1275 16.8765C58.6346 16.8487 59.1005 16.7253 59.5253 16.5063C59.9563 16.2805 60.32 15.9574 60.6164 15.5368L62.0629 16.944C61.8594 17.2746 61.5739 17.5968 61.2064 17.9104C60.8455 18.2236 60.4036 18.4891 59.8809 18.7069C59.3579 18.9182 58.7551 19.0426 58.0725 19.0801Z" fill="white"/>
<path d="M73.4276 12.3491L71.2765 20.3259L68.561 19.5936L71.3122 9.39163L73.8674 10.0807L73.4276 12.3491ZM77.1193 10.8869L76.3932 13.3917C76.2663 13.3372 76.1103 13.2783 75.9251 13.2148C75.7479 13.1468 75.5839 13.0925 75.433 13.0518C75.0496 12.9484 74.7029 12.9088 74.3929 12.9331C74.0909 12.9528 73.8201 13.0315 73.5807 13.1692C73.3476 13.3086 73.1474 13.5008 72.9802 13.7457C72.8193 13.9922 72.686 14.2867 72.5802 14.629L72.0791 14.3118C72.2571 13.6518 72.4867 13.063 72.7678 12.5454C73.0507 12.0216 73.3738 11.5861 73.7371 11.2391C74.1067 10.8937 74.5075 10.6579 74.9394 10.5316C75.3712 10.4053 75.8261 10.4066 76.3038 10.5355C76.4546 10.5761 76.6053 10.6302 76.7556 10.6978C76.9077 10.759 77.0289 10.822 77.1193 10.8869Z" fill="white"/>
<path d="M86.3794 24.7463L88.9657 20.8135C89.1517 20.5306 89.2647 20.2582 89.3045 19.9961C89.348 19.7286 89.3094 19.4733 89.1887 19.2303C89.0734 18.9909 88.8635 18.771 88.5588 18.5707C88.2977 18.399 88.0416 18.2967 87.7904 18.264C87.5428 18.2259 87.3118 18.2571 87.0976 18.3578C86.8869 18.453 86.7083 18.6121 86.5616 18.8351L84.2117 17.2898C84.4585 16.9145 84.7798 16.6154 85.1757 16.3926C85.5716 16.1698 86.0194 16.0397 86.5194 16.0023C87.0229 15.9594 87.5514 16.0147 88.1049 16.1683C88.6639 16.3255 89.2289 16.5919 89.8001 16.9675C90.4855 17.4182 91.0196 17.9331 91.4025 18.5121C91.7853 19.0912 91.9788 19.7093 91.9829 20.3665C91.9925 21.0274 91.7719 21.7005 91.3212 22.3859L88.8369 26.1637C88.5185 26.6478 88.2873 27.0646 88.1432 27.414C88.0027 27.758 87.9145 28.0817 87.8785 28.3853L87.7873 28.524L85.4129 26.9626C85.456 26.6481 85.5658 26.2917 85.742 25.8934C85.9273 25.4931 86.1398 25.1108 86.3794 24.7463ZM88.9163 21.5641L88.058 22.9048L86.7443 22.0409C86.4342 21.837 86.1417 21.6953 85.8668 21.6158C85.5918 21.5362 85.3379 21.5135 85.1052 21.5474C84.8761 21.576 84.6707 21.6513 84.4891 21.7734C84.3129 21.8991 84.1587 22.0626 84.0263 22.2639C83.894 22.4651 83.8204 22.6778 83.8055 22.9018C83.7943 23.1203 83.8453 23.3331 83.9585 23.54C84.0753 23.7415 84.2507 23.9192 84.4846 24.073C84.8382 24.3055 85.192 24.4369 85.5461 24.4672C85.9002 24.4975 86.216 24.4557 86.4933 24.342C86.7761 24.2319 86.9811 24.0862 87.1081 23.9048L87.0736 25.3081C86.8399 25.4738 86.5682 25.6263 86.2585 25.7655C85.9543 25.9083 85.6182 26.0106 85.2502 26.0725C84.8858 26.129 84.4984 26.1197 84.088 26.0446C83.6812 25.9641 83.2575 25.779 82.8169 25.4892C82.2567 25.1208 81.8214 24.6748 81.5111 24.1513C81.2099 23.6259 81.0565 23.0771 81.0511 22.5047C81.0547 21.9305 81.2247 21.3877 81.5609 20.8764C81.865 20.414 82.2221 20.0605 82.6323 19.816C83.0424 19.5714 83.4966 19.4377 83.9948 19.4147C84.5021 19.3898 85.0525 19.483 85.6461 19.6941C86.2433 19.8998 86.8791 20.2244 87.5536 20.668L88.9163 21.5641Z" fill="white"/>
<path d="M103.846 30.4814L102.299 31.7368L98.4225 26.9598L99.9693 25.7043L103.846 30.4814ZM102.954 25.2441L104.726 27.4279L96.9692 33.7234C96.7317 33.9163 96.5743 34.0943 96.4971 34.2575C96.4241 34.4258 96.4136 34.5936 96.4656 34.761C96.5227 34.9243 96.6292 35.102 96.7851 35.2941C96.8958 35.4306 96.9994 35.5478 97.0956 35.6458C97.201 35.7447 97.2921 35.8259 97.3688 35.8894L95.7675 37.2017C95.555 37.0639 95.3429 36.9006 95.1311 36.712C94.9193 36.5233 94.7067 36.2976 94.4934 36.0347C94.1036 35.5545 93.8414 35.0713 93.7069 34.5852C93.5814 34.1001 93.6177 33.6179 93.8157 33.1386C94.0136 32.6593 94.4007 32.1858 94.977 31.7181L102.954 25.2441Z" fill="white"/>
<path d="M100.616 47.0291C100.316 46.2656 100.168 45.5333 100.172 44.8321C100.183 44.1286 100.322 43.479 100.592 42.8834C100.864 42.2938 101.244 41.7739 101.731 41.3235C102.225 40.8707 102.799 40.5157 103.453 40.2585L103.817 40.1156C104.562 39.8227 105.285 39.6609 105.987 39.63C106.688 39.5992 107.344 39.6914 107.953 39.9067C108.564 40.128 109.103 40.4758 109.57 40.9502C110.042 41.4221 110.418 42.0156 110.699 42.7306C110.973 43.4274 111.101 44.0907 111.083 44.7204C111.064 45.3502 110.915 45.9302 110.633 46.4605C110.354 46.9968 109.955 47.4755 109.435 47.8967C108.921 48.3156 108.304 48.6666 107.583 48.95L106.492 49.3787L103.42 41.5622L105.165 40.8764L107.226 46.1207L107.426 46.0421C107.79 45.8992 108.088 45.7052 108.32 45.4599C108.561 45.2184 108.715 44.934 108.782 44.6068C108.849 44.2796 108.803 43.913 108.644 43.507C108.508 43.1616 108.316 42.8945 108.066 42.7056C107.817 42.5167 107.525 42.397 107.191 42.3466C106.859 42.3023 106.492 42.3134 106.092 42.3799C105.7 42.4501 105.285 42.5709 104.849 42.7423L104.486 42.8852C104.092 43.04 103.75 43.2374 103.459 43.4774C103.171 43.7235 102.946 43.9972 102.785 44.2985C102.626 44.6058 102.538 44.9341 102.522 45.2834C102.507 45.6388 102.575 46.0073 102.725 46.389C102.911 46.8617 103.174 47.2652 103.516 47.5998C103.866 47.938 104.287 48.1817 104.779 48.331L103.898 50.1464C103.52 50.057 103.124 49.8872 102.711 49.6369C102.3 49.3926 101.909 49.0565 101.538 48.6287C101.173 48.1985 100.866 47.6653 100.616 47.0291Z" fill="white"/>
</svg>
